<?xml version="1.0" encoding="UTF-8"?>
<svg version="1.1" viewBox="0 0 1020 948" width="255" height="237" xmlns="http://www.w3.org/2000/svg">
<path transform="translate(0)" d="m0 0h1020v948h-1020z" fill="#071C1C"/>
<path transform="translate(352,206)" d="m0 0h189l-1 5-8 16-6 20-2 14-1 32-1 1-100 1-6 4-2 4-1 70h235l1 1v34l-4 16-9 15-10 10-10 6-13 5-5 1-31 1h-154v130l-2 9-7 12-5 6-9 6-10 4h-32l-9-3-11-8-8-11-5-11-1-4v-336l2-18 7-14 10-10 10-6z" fill="#FDFDFD"/>
<path transform="translate(765,122)" d="m0 0h2v13l-4 32-4 22-7 25-9 22-8 16-10 16-8 10-9 10-12 12-16 12-25 13-21 7-18 3h-30l-23-3-22-5v-3l17-16 8-8 8-7 7-7 8-7 12-11 11-9 14-12 8-7 8-6h13l11 1-1-3-13-5v-3l12-9 9-8 8-7 7-6h2v-2l14-11 12-11 11-9 13-11 6-7-12 7-16 12-11 8-19 14-18 13-19 14-8 5h-2v-9l1-8-3 1-2 9-1 11-6 7-17 13-14 11h-3l-3-10-1 14-5 5-11 9-13 10-16 12-6 5h-3l-1-6v-17l3-27 5-15 8-17 10-14 11-13h2v-2l14-11 21-12 16-6 23-6 9-2 46-6 24-5 21-8z" fill="#22D00A"/>
<path transform="translate(309,690)" d="m0 0h25l20 4 15 6 14 8 7 5-2 5-7 11-9 13-4 1-11-7-17-7-13-3h-11l-11 3-6 5-4 8v7l3 6 8 7 11 5 28 9 19 8 10 6 6 5 7 10 5 10 2 8v16l-3 13-8 16-10 11-14 8-14 5-16 2h-12l-16-2-16-5-15-6-14-8-11-8 1-5 10-13 10-14 4 2 9 7 10 6 19 7 13 2h9l10-3 8-6 3-5 1-11-3-7-7-6-31-11-24-8-11-6-11-9-7-11-4-12-1-14 2-15 4-11 6-9 4-5 12-9 12-6z" fill="#FDFDFD"/>
<path transform="translate(421,691)" d="m0 0h38l1 77 7-8 14-9 11-4 5-1h16l12 3 11 6 7 6 7 10 4 12 1 5 1 78v23l-1 1h-37l-1-2-1-86-3-10-6-8-8-4-4-1h-10l-11 4-7 5-5 9-2 7-1 85-1 1h-37l-1-1v-197z" fill="#FDFDFD"/>
<path transform="translate(635,747)" d="m0 0h27l16 4 14 7 7 6 9 14 3 11 1 13v86l-2 2h-33l-1-2-1-16-8 7-17 12-10 3h-21l-9-3-14-9-5-5-6-8-4-11-1-7v-8l4-14 6-9 8-7 10-5 16-4h32l19 2-4-15-5-7-8-4-7-2h-15l-18 6-12 6-4-2-10-15-3-4 1-4 15-9 16-6z" fill="#FDFDFD"/>
<path transform="translate(909,746)" d="m0 0h13l12 2 13 5 12 7 12 12 7 11 5 15 2 11 1 18-2 6-102 1 3 10 9 10 9 6 9 3h16l13-4 10-7 3-1 1-3 5 1 11 13 5 4 1 4-14 11-17 8-14 4-16 1-13-1-13-4-17-9-12-11-6-7-7-14-4-11-2-14 1-16 3-11 7-16 9-12 10-9 15-8 14-4z" fill="#FDFDFD"/>
<path transform="translate(97,696)" d="m0 0h134l1 1v32l-1 1-93 1v45l85 1v33l-1 1h-85v61l-1 17h-39z" fill="#22D00A"/>
<path transform="translate(815,747)" d="m0 0h17v37l-4 1-8-1-14 2-10 5-3 1-2 5-4 7-3 14v70l-2 2h-36l-1-1v-139h37l1 1 1 22 7-11 10-9 10-5z" fill="#FDFDFD"/>
<path transform="translate(642,828)" d="m0 0h18l14 1 1 1v10l-8 16-7 7-11 4h-14l-10-4-6-7-2-6 1-10 4-6 8-4z" fill="#071C1C"/>
<path transform="translate(907,775)" d="m0 0h16l10 4 9 8 5 10 2 10-11 1-56-1-1-3 5-13 6-8 10-6z" fill="#071C1C"/>
</svg>
